<svg width="62" height="116" viewBox="0 0 62 116" fill="none" xmlns="http://www.w3.org/2000/svg">
<path d="M59.6291 113.447C61.1472 111.811 62 109.593 62 107.281C62 104.969 61.1472 102.751 59.6291 101.115L19.5459 57.9473L59.6291 14.7793C61.1042 13.1345 61.9204 10.9316 61.9019 8.64503C61.8835 6.35847 61.0319 4.17117 59.5305 2.55426C58.0291 0.937347 55.9981 0.020195 53.875 0.000328064C51.7518 -0.0195389 49.7063 0.859467 48.1791 2.44804L2.37088 51.7817C0.852806 53.4171 0 55.6349 0 57.9473C0 60.2598 0.852806 62.4776 2.37088 64.113L48.1791 113.447C49.6976 115.082 51.7569 116 53.9041 116C56.0513 116 58.1106 115.082 59.6291 113.447Z" fill="white"/>
</svg>
