<svg width="30" height="23" viewBox="0 0 30 23" fill="none" xmlns="http://www.w3.org/2000/svg">
<path fill-rule="evenodd" clip-rule="evenodd" d="M20.9472 0C19.8426 0 18.9472 0.895431 18.9472 2V3.32416H4C1.79086 3.32416 0 5.11502 0 7.32415V18.6046C0 20.8137 1.79087 22.6046 4 22.6046H25.0974C27.3066 22.6046 29.0974 20.8137 29.0974 18.6046V7.32416C29.0974 5.56759 27.9652 4.07548 26.3907 3.53784V2C26.3907 0.895431 25.4953 0 24.3907 0H20.9472ZM18.9472 12.9645C18.9472 15.3512 16.978 17.286 14.5488 17.286C12.1196 17.286 10.1503 15.3512 10.1503 12.9645C10.1503 10.5778 12.1196 8.64301 14.5488 8.64301C16.978 8.64301 18.9472 10.5778 18.9472 12.9645Z" fill="#252830"/>
</svg>
