<svg width="33" height="32" viewBox="0 0 33 32" fill="none" xmlns="http://www.w3.org/2000/svg">
<path d="M16.2851 3C8.97725 3 3.05359 8.82 3.05359 15.998C3.05359 18.073 3.54825 20.036 4.42967 21.778L2.70346 26.865C2.18336 28.397 3.63171 29.872 5.2083 29.415L10.7584 27.812C12.4917 28.5951 14.3773 28.9994 16.2851 28.997C23.592 28.997 29.5167 23.177 29.5167 15.998C29.5167 8.82 23.591 3 16.2851 3ZM11.1951 13.999C11.1951 13.7338 11.3023 13.4794 11.4932 13.2919C11.6841 13.1044 11.9429 12.999 12.2129 12.999H20.3554C20.6253 12.999 20.8842 13.1044 21.0751 13.2919C21.2659 13.4794 21.3732 13.7338 21.3732 13.999C21.3732 14.2642 21.2659 14.5186 21.0751 14.7061C20.8842 14.8936 20.6253 14.999 20.3554 14.999H12.2129C11.9429 14.999 11.6841 14.8936 11.4932 14.7061C11.3023 14.5186 11.1951 14.2642 11.1951 13.999ZM12.2129 16.999H18.3197C18.456 16.9948 18.5918 17.0175 18.719 17.0658C18.8462 17.1141 18.9622 17.1871 19.0602 17.2803C19.1581 17.3735 19.236 17.4851 19.2892 17.6085C19.3423 17.7319 19.3697 17.8645 19.3697 17.9985C19.3697 18.1325 19.3423 18.2651 19.2892 18.3885C19.236 18.5119 19.1581 18.6235 19.0602 18.7167C18.9622 18.8099 18.8462 18.8829 18.719 18.9312C18.5918 18.9795 18.456 19.0022 18.3197 18.998H12.2129C11.9429 18.998 11.6841 18.8926 11.4932 18.7051C11.3023 18.5176 11.1951 18.2632 11.1951 17.998C11.1951 17.7328 11.3023 17.4784 11.4932 17.2909C11.6841 17.1034 11.9429 16.998 12.2129 16.998V16.999Z" fill="#252830"/>
</svg>
