<svg width="36" height="34" viewBox="0 0 36 34" fill="none" xmlns="http://www.w3.org/2000/svg">
<path d="M11.6399 3.59743C9.7875 3.14863 7.84603 3.33903 6.32491 4.15163C4.77529 4.97783 3.68878 6.44323 3.63534 8.40333C3.55341 11.4667 4.29615 15.5773 7.24577 20.4019C10.158 25.167 13.373 28.023 16.0412 29.7196C17.7262 30.7923 19.5875 30.8212 21.1781 30.1225C22.7455 29.434 24.0173 28.0587 24.6781 26.3536C24.8426 25.9295 24.9086 25.4764 24.8717 25.0256C24.8348 24.5748 24.6958 24.137 24.4643 23.7424L23.0323 21.3029C22.7434 20.8105 22.3545 20.3778 21.8885 20.0303C21.4225 19.6829 20.8887 19.4274 20.3181 19.279C19.7476 19.1305 19.1518 19.0921 18.5654 19.1658C17.9791 19.2395 17.4141 19.4239 16.9033 19.7083L16.1249 20.1418C15.5033 20.4869 14.871 20.4036 14.5254 20.0585C13.3641 18.9008 12.3079 17.2059 11.8305 15.6793C11.6969 15.2526 11.9107 14.7137 12.4931 14.3618L13.9002 13.5084C14.8679 12.9221 15.5615 12.0022 15.8365 10.9401C16.1116 9.8781 15.9469 8.75573 15.3768 7.80663L13.7773 5.14443C13.548 4.76294 13.2405 4.42939 12.8733 4.16362C12.5061 3.89785 12.0867 3.7053 11.6399 3.59743ZM31.801 3.64843C31.9679 3.80783 32.0617 4.02399 32.0617 4.24938C32.0617 4.47477 31.9679 4.69093 31.801 4.85033L27.0862 9.35023L31.801 13.8484C31.968 14.008 32.0617 14.2244 32.0615 14.45C32.0614 14.6755 31.9673 14.8918 31.8001 15.0512C31.6329 15.2106 31.4062 15.3 31.1698 15.2998C30.9335 15.2997 30.7069 15.2099 30.5399 15.0503L25.8269 10.5521L21.114 15.0503C20.947 15.2099 20.7204 15.2997 20.4841 15.2998C20.2477 15.3 20.021 15.2106 19.8538 15.0512C19.6866 14.8918 19.5925 14.6755 19.5923 14.45C19.5922 14.2244 19.6859 14.008 19.8529 13.8484L24.5677 9.35023L19.8529 4.85033C19.6859 4.69072 19.5922 4.47434 19.5923 4.24878C19.5925 4.02322 19.6866 3.80696 19.8538 3.64758C20.021 3.4882 20.2477 3.39875 20.4841 3.39891C20.7204 3.39907 20.947 3.48882 21.114 3.64843L25.8269 8.14663L30.5399 3.64843C30.6226 3.56927 30.7209 3.50647 30.8291 3.46362C30.9373 3.42077 31.0533 3.39871 31.1705 3.39871C31.2876 3.39871 31.4036 3.42077 31.5118 3.46362C31.62 3.50647 31.7183 3.56927 31.801 3.64843Z" fill="#252830"/>
</svg>
