<svg width="34" height="24" viewBox="0 0 34 24" fill="none" xmlns="http://www.w3.org/2000/svg">
<path d="M0 1.71429C0 1.25963 0.179107 0.823594 0.497918 0.502103C0.81673 0.180612 1.24913 0 1.7 0H32.3C32.7509 0 33.1833 0.180612 33.5021 0.502103C33.8209 0.823594 34 1.25963 34 1.71429C34 2.16894 33.8209 2.60498 33.5021 2.92647C33.1833 3.24796 32.7509 3.42857 32.3 3.42857H1.7C1.24913 3.42857 0.81673 3.24796 0.497918 2.92647C0.179107 2.60498 0 2.16894 0 1.71429ZM6.8 12C6.8 11.5453 6.97911 11.1093 7.29792 10.7878C7.61673 10.4663 8.04913 10.2857 8.5 10.2857H25.5C25.9509 10.2857 26.3833 10.4663 26.7021 10.7878C27.0209 11.1093 27.2 11.5453 27.2 12C27.2 12.4547 27.0209 12.8907 26.7021 13.2122C26.3833 13.5337 25.9509 13.7143 25.5 13.7143H8.5C8.04913 13.7143 7.61673 13.5337 7.29792 13.2122C6.97911 12.8907 6.8 12.4547 6.8 12ZM13.6 20.5714C13.1491 20.5714 12.7167 20.752 12.3979 21.0735C12.0791 21.395 11.9 21.8311 11.9 22.2857C11.9 22.7404 12.0791 23.1764 12.3979 23.4979C12.7167 23.8194 13.1491 24 13.6 24H20.4C20.8509 24 21.2833 23.8194 21.6021 23.4979C21.9209 23.1764 22.1 22.7404 22.1 22.2857C22.1 21.8311 21.9209 21.395 21.6021 21.0735C21.2833 20.752 20.8509 20.5714 20.4 20.5714H13.6Z" fill="#344D54"/>
</svg>
