<svg width="37" height="36" viewBox="0 0 37 36" fill="none" xmlns="http://www.w3.org/2000/svg">
<g clip-path="url(#clip0_39_5356)">
<path fill-rule="evenodd" clip-rule="evenodd" d="M19.1743 6.35303C15.1959 6.35303 11.9707 9.5782 11.9707 13.5567V21.845C11.9707 25.4741 14.6543 28.4764 18.1453 28.9757V34.3888H16.05C15.3127 34.3888 14.7149 34.9865 14.7149 35.7239C14.7149 36.4612 15.3127 37.0589 16.05 37.0589H18.1453H20.8895H22.9848C23.7221 37.0589 24.3198 36.4612 24.3198 35.7239C24.3198 34.9865 23.7221 34.3888 22.9848 34.3888H20.8895V28.8432C24.0399 28.0738 26.378 25.2325 26.378 21.845V19.0359H19.1651C18.9807 19.0359 18.8313 18.8865 18.8313 18.7021C18.8313 18.5178 18.9807 18.3684 19.1651 18.3684H26.378V16.3658H19.1651C18.9807 16.3658 18.8313 16.2164 18.8313 16.0321C18.8313 15.8477 18.9807 15.6983 19.1651 15.6983H26.378V13.6957H19.1651C18.9807 13.6957 18.8313 13.5463 18.8313 13.362C18.8313 13.1776 18.9807 13.0282 19.1651 13.0282H26.3589C26.0883 9.29649 22.9751 6.35303 19.1743 6.35303Z" fill="#252830"/>
</g>
<defs>
<clipPath id="clip0_39_5356">
<rect width="37" height="36" fill="white"/>
</clipPath>
</defs>
</svg>
