<svg width="35" height="30" viewBox="0 0 35 30" fill="none" xmlns="http://www.w3.org/2000/svg">
<path d="M17.3028 0C7.6308 0 0.308409 7.90898 0 17V23.9062C0 24.7895 0.726582 25.5 1.56131 25.5C2.39603 25.5 3.24427 24.7895 3.24427 23.9062V17C3.24427 9.3832 9.55304 3.20078 17.3028 3.20078C25.0553 3.20078 31.3613 9.3832 31.3613 17V23.9062C31.3613 24.7895 32.0845 25.5 32.9835 25.5C33.8824 25.5 34.6056 24.7895 34.6056 23.9062V16.9402C34.2947 7.90898 26.9748 0 17.3028 0ZM10.8142 17H9.73282C7.34423 17 5.40712 18.9059 5.40712 21.2586V25.492C5.40712 27.8441 7.34693 29.75 9.73282 29.75H10.8142C12.0079 29.75 12.9771 28.7977 12.9771 27.6217V19.1283C12.9771 17.9496 12.0106 17 10.8142 17ZM24.8728 17H23.7913C22.5977 17 21.6285 17.9509 21.6285 19.1277V27.621C21.6285 28.7964 22.5977 29.7493 23.7913 29.7493L24.8728 29.75C27.2614 29.75 29.1985 27.8441 29.1985 25.4914V21.258C29.1985 18.9059 27.2587 17 24.8728 17Z" fill="#252830"/>
</svg>
