<svg width="15" height="25" viewBox="0 0 15 25" fill="none" xmlns="http://www.w3.org/2000/svg">
<path d="M5.04545 17.1591V16.8636C5.05303 15.4924 5.18182 14.4015 5.43182 13.5909C5.68939 12.7803 6.05303 12.1288 6.52273 11.6364C6.99242 11.1364 7.56439 10.678 8.23864 10.2614C8.70076 9.97348 9.11364 9.65909 9.47727 9.31818C9.84848 8.9697 10.1402 8.58333 10.3523 8.15909C10.5644 7.72727 10.6705 7.24621 10.6705 6.71591C10.6705 6.11742 10.5303 5.59848 10.25 5.15909C9.9697 4.7197 9.59091 4.37879 9.11364 4.13636C8.64394 3.89394 8.11742 3.77273 7.53409 3.77273C6.99621 3.77273 6.48485 3.89015 6 4.125C5.52273 4.35227 5.125 4.70076 4.80682 5.17045C4.49621 5.63258 4.32197 6.2197 4.28409 6.93182H0.238636C0.276515 5.49242 0.625 4.28788 1.28409 3.31818C1.95076 2.34848 2.82955 1.62121 3.92045 1.13636C5.01894 0.651514 6.23106 0.40909 7.55682 0.40909C9.00379 0.40909 10.2765 0.662878 11.375 1.17045C12.4811 1.67803 13.3409 2.40151 13.9545 3.34091C14.5758 4.27273 14.8864 5.37879 14.8864 6.65909C14.8864 7.52273 14.7462 8.29545 14.4659 8.97727C14.1932 9.65909 13.803 10.2652 13.2955 10.7955C12.7879 11.3258 12.1856 11.7992 11.4886 12.2159C10.875 12.5947 10.3712 12.9886 9.97727 13.3977C9.59091 13.8068 9.30303 14.2879 9.11364 14.8409C8.93182 15.3864 8.83712 16.0606 8.82955 16.8636V17.1591H5.04545ZM7.02273 24.25C6.34091 24.25 5.75379 24.0076 5.26136 23.5227C4.76894 23.0379 4.52273 22.447 4.52273 21.75C4.52273 21.0682 4.76894 20.4848 5.26136 20C5.75379 19.5152 6.34091 19.2727 7.02273 19.2727C7.69697 19.2727 8.2803 19.5152 8.77273 20C9.27273 20.4848 9.52273 21.0682 9.52273 21.75C9.52273 22.2121 9.4053 22.6326 9.17045 23.0114C8.94318 23.3902 8.64015 23.6932 8.26136 23.9205C7.89015 24.1402 7.47727 24.25 7.02273 24.25Z" fill="#344D54"/>
</svg>
