<svg width="34" height="34" viewBox="0 0 34 34" fill="none" xmlns="http://www.w3.org/2000/svg">
<path d="M7.08203 4.3418H26.9154C28.0425 4.3418 29.1235 4.78956 29.9206 5.58659C30.7176 6.38362 31.1654 7.46463 31.1654 8.5918V21.3418C31.1654 22.469 30.7176 23.55 29.9206 24.347C29.1235 25.144 28.0425 25.5918 26.9154 25.5918H7.08203C5.95486 25.5918 4.87386 25.144 4.07683 24.347C3.2798 23.55 2.83203 22.469 2.83203 21.3418L2.83203 8.5918C2.83203 7.46463 3.2798 6.38362 4.07683 5.58659C4.87386 4.78956 5.95486 4.3418 7.08203 4.3418ZM12.7487 27.0085H21.2487C21.6244 27.0085 21.9848 27.1577 22.2504 27.4234C22.5161 27.6891 22.6654 28.0494 22.6654 28.4251C22.6654 28.8009 22.5161 29.1612 22.2504 29.4269C21.9848 29.6925 21.6244 29.8418 21.2487 29.8418H12.7487C12.373 29.8418 12.0126 29.6925 11.747 29.4269C11.4813 29.1612 11.332 28.8009 11.332 28.4251C11.332 28.0494 11.4813 27.6891 11.747 27.4234C12.0126 27.1577 12.373 27.0085 12.7487 27.0085Z" fill="#363A45"/>
</svg>
