<svg width="29" height="29" viewBox="0 0 29 29" fill="none" xmlns="http://www.w3.org/2000/svg">
<path d="M14.517 0C15.6539 0.0118978 16.7861 0.138312 17.8951 0.376269C18.1313 0.426909 18.3452 0.547156 18.5068 0.720207C18.6685 0.893258 18.7697 1.11047 18.7965 1.34148L19.0598 3.61248C19.0969 3.93285 19.2119 4.24038 19.3954 4.51029C19.5789 4.7802 19.8259 5.00495 20.1164 5.16643C20.407 5.32791 20.733 5.42162 21.0681 5.43999C21.4033 5.45837 21.7382 5.40091 22.046 5.27223L24.2144 4.35758C24.4347 4.26441 24.6798 4.23926 24.9156 4.28562C25.1515 4.33198 25.3665 4.44755 25.5309 4.61636C27.0983 6.22422 28.2654 8.15243 28.9446 10.2559C29.0158 10.477 29.0137 10.7138 28.9385 10.9337C28.8633 11.1535 28.7187 11.3455 28.5249 11.4829L26.6012 12.8452C26.3305 13.0359 26.1104 13.2852 25.9587 13.5729C25.807 13.8605 25.7281 14.1785 25.7282 14.5009C25.7284 14.8233 25.8076 15.1411 25.9596 15.4287C26.1115 15.7162 26.3319 15.9653 26.6028 16.1558L28.528 17.5166C28.7222 17.6541 28.8669 17.8463 28.9421 18.0665C29.0173 18.2866 29.0193 18.5238 28.9477 18.745C28.2687 20.8483 27.1021 22.7765 25.5356 24.3846C25.3714 24.5534 25.1568 24.669 24.9212 24.7156C24.6857 24.7623 24.4409 24.7375 24.2206 24.6449L22.0429 23.7273C21.7355 23.5976 21.4007 23.5393 21.0654 23.557C20.7302 23.5748 20.404 23.6681 20.1134 23.8294C19.8227 23.9908 19.5757 24.2156 19.3924 24.4857C19.2091 24.7558 19.0946 25.0636 19.0583 25.384L18.7965 27.6536C18.7701 27.8821 18.6708 28.0972 18.5123 28.2694C18.3537 28.4416 18.1435 28.5626 17.9106 28.6158C15.6676 29.1281 13.3308 29.1281 11.0879 28.6158C10.8549 28.5626 10.6448 28.4416 10.4862 28.2694C10.3276 28.0972 10.2283 27.8821 10.2019 27.6536L9.93862 25.387C9.90052 25.0679 9.78507 24.7618 9.60152 24.4933C9.41797 24.2248 9.17144 24.0013 8.8817 23.8408C8.59196 23.6803 8.26707 23.5872 7.93311 23.5691C7.59914 23.5509 7.26539 23.6081 6.95862 23.7362L4.77938 24.6523C4.5591 24.745 4.31431 24.7697 4.07877 24.7231C3.84323 24.6765 3.62857 24.5608 3.46441 24.3921C1.89707 22.7822 0.730431 20.8519 0.0522787 18.7465C-0.0192922 18.5253 -0.017332 18.2881 0.0578869 18.068C0.133106 17.8478 0.27785 17.6556 0.472018 17.5181L2.39879 16.1558C2.66961 15.9652 2.88984 15.716 3.04165 15.4284C3.19345 15.1408 3.27256 14.8229 3.27256 14.5005C3.27256 14.1781 3.19345 13.8602 3.04165 13.5726C2.88984 13.285 2.66961 13.0358 2.39879 12.8452L0.473567 11.4859C0.279124 11.3485 0.134072 11.1564 0.0585711 10.9363C-0.0169299 10.7161 -0.0191293 10.4788 0.0522787 10.2574C0.731943 8.15379 1.89964 6.22556 3.4675 4.61785C3.63185 4.44935 3.8466 4.33397 4.08213 4.28762C4.31765 4.24127 4.56236 4.26624 4.78248 4.35907L6.95088 5.27372C7.25913 5.40202 7.59443 5.45912 7.92983 5.44042C8.26523 5.42171 8.59139 5.32774 8.8821 5.16603C9.17282 5.00433 9.41998 4.77941 9.60374 4.50934C9.7875 4.23927 9.90273 3.93158 9.94017 3.61099L10.2035 1.34148C10.2301 1.11 10.3314 0.892314 10.4934 0.718948C10.6553 0.545583 10.8697 0.425235 11.1065 0.374782C12.2185 0.138313 13.3523 0.0133851 14.517 0ZM14.4969 10.0388C13.2646 10.0388 12.0827 10.5089 11.2113 11.3456C10.3399 12.1823 9.85034 13.3172 9.85034 14.5005C9.85034 15.6838 10.3399 16.8187 11.2113 17.6554C12.0827 18.4921 13.2646 18.9622 14.4969 18.9622C15.7292 18.9622 16.9111 18.4921 17.7825 17.6554C18.6539 16.8187 19.1435 15.6838 19.1435 14.5005C19.1435 13.3172 18.6539 12.1823 17.7825 11.3456C16.9111 10.5089 15.7292 10.0388 14.4969 10.0388Z" fill="#344D54"/>
</svg>
